<svg width="14" height="14" viewBox="0 0 14 14" fill="none" xmlns="http://www.w3.org/2000/svg">
<circle cx="7" cy="7" r="6.5" fill="white" stroke="#DC1212"/>
<path fill-rule="evenodd" clip-rule="evenodd" d="M7.35355 5.23226C7.15829 5.42752 6.84171 5.42752 6.64645 5.23226L4.52512 3.11094C4.32986 2.91568 4.01328 2.91568 3.81802 3.11094L3.11091 3.81805C2.91565 4.01331 2.91565 4.32989 3.11091 4.52515L5.23223 6.64648C5.4275 6.84174 5.4275 7.15832 5.23223 7.35358L3.11091 9.47491C2.91565 9.67017 2.91565 9.98675 3.11091 10.182L3.81801 10.8891C4.01328 11.0844 4.32986 11.0844 4.52512 10.8891L6.64645 8.7678C6.84171 8.57253 7.15829 8.57253 7.35355 8.7678L9.47487 10.8891C9.67013 11.0844 9.98672 11.0844 10.182 10.8891L10.8891 10.182C11.0843 9.98674 11.0843 9.67016 10.8891 9.4749L8.76777 7.35358C8.5725 7.15832 8.5725 6.84174 8.76777 6.64648L10.8891 4.52516C11.0843 4.3299 11.0843 4.01332 10.8891 3.81805L10.182 3.11095C9.98671 2.91568 9.67013 2.91568 9.47487 3.11095L7.35355 5.23226Z" fill="#DC1212"/>
</svg>
