<svg width="13" height="13" viewBox="0 0 13 13" fill="none" xmlns="http://www.w3.org/2000/svg">
<path fill-rule="evenodd" clip-rule="evenodd" d="M3.67157 5.7929C4.0621 6.18342 4.0621 6.81659 3.67157 7.20711L0.843146 10.0355C0.452622 10.4261 0.452622 11.0592 0.843146 11.4498L1.55025 12.1569C1.94078 12.5474 2.57394 12.5474 2.96447 12.1569L5.79289 9.32843C6.18342 8.93791 6.81658 8.93791 7.20711 9.32843L10.0355 12.1569C10.4261 12.5474 11.0592 12.5474 11.4497 12.1569L12.1569 11.4498C12.5474 11.0592 12.5474 10.4261 12.1569 10.0355L9.32843 7.20711C8.9379 6.81659 8.9379 6.18342 9.32843 5.7929L12.1569 2.96447C12.5474 2.57395 12.5474 1.94078 12.1569 1.55026L11.4497 0.84315C11.0592 0.452625 10.4261 0.452625 10.0355 0.84315L7.20711 3.67158C6.81658 4.0621 6.18342 4.0621 5.79289 3.67158L2.96447 0.84315C2.57394 0.452625 1.94078 0.452625 1.55025 0.843149L0.843146 1.55026C0.452622 1.94078 0.452622 2.57395 0.843146 2.96447L3.67157 5.7929Z" fill="black"/>
</svg>
